# xmcd
#
# Track frame offsets: 
#        150
#        18943
#        36943
#        53358
#        68354
#        86463
#        103184
#        116591
#        132788
#        148448
#        165392
#        185570
#        201354
#        212419
#        231386
#        246637
#        262426
#        272902
#        287505
#        299353
#        311029
#        330587
#
# Disc length: 4620 seconds
#
# Revision: 2
# Processed by: cddbd v1.5.2PL0 Copyright (c) Steve Scherf et al.
# Submitted via: ExactAudioCopyFreeDBPlugin 1.0
#
DISCID=55120a16
DTITLE=Various Artist - The Country Album - CD Two
DYEAR=2015
DGENRE=Country
TTITLE0=Dolly Parton and Kenny Rogers - Islands In The Stream
TTITLE1=Lonestar - Amazed
TTITLE2=Shania Twain - That Don't Impress Me Much
TTITLE3=Carrie Underwood - Before He Cheats
TTITLE4=Lee Ann Womack - I Hope You Dance
TTITLE5=The Band Perry - If I Die Young
TTITLE6=Kacey Musgraves - High Time
TTITLE7=Charlie Daniels Band - The Devil Went Down To Georgia
TTITLE8=Nathan Carter - Wagon Wheel
TTITLE9=Luke Bryan - Play It Again
TTITLE10=Steve Earle - Copperhead Road
TTITLE11=The Band - The Night They Drove Old Dixie Down
TTITLE12=Roger Miller - King Of The Road
TTITLE13=Bobby Gentry - Ode to Billy Joe
TTITLE14=Don Williams - I Recall A Gypsy Woman
TTITLE15=Willie Nelson - Always On My Mind
TTITLE16=Kris Kristofferson - Help Me Make It Through The Night
TTITLE17=Glenn Campbell - Rhinestone Cowboy
TTITLE18=Tammy Wynette - Stand By Your Man
TTITLE19=Crystal Gayle - Don't It Make Your Brown Eyes Blue
TTITLE20=Kenny Rogers - Coward of the County
TTITLE21=Billy Jo Spears - Blanket On The Ground
EXTD=
EXTT0=
EXTT1=
EXTT2=
EXTT3=
EXTT4=
EXTT5=
EXTT6=
EXTT7=
EXTT8=
EXTT9=
EXTT10=
EXTT11=
EXTT12=
EXTT13=
EXTT14=
EXTT15=
EXTT16=
EXTT17=
EXTT18=
EXTT19=
EXTT20=
EXTT21=
PLAYORDER=
